# xmcd
#
# Track frame offsets:
#	150
#	1721
#	20516
#	41492
#	60800
#	84535
#	101868
#	126221
#	153062
#	171658
#	187972
#	206425
#	211772
#	228489
#
# Disc length: 3514 seconds
#
# Revision: 1
# Processed by: cddbd v1.5.1PL0 Copyright (c) Steve Scherf et al.
# Submitted via: audiograbber 1.83.01
#
DISCID=a80db80e
DTITLE=Las Blacanblus - Especial en Vivo
DYEAR=1998
DGENRE=Blues
TTITLE0=Telón
TTITLE1=Maldito piano
TTITLE2=Bendición
TTITLE3=Maxi
TTITLE4=Blues latino
TTITLE5=Caledonia
TTITLE6=After you've gone
TTITLE7=St. James infirmary blues
TTITLE8=Rouge and pentagrama
TTITLE9=Sixteen tons
TTITLE10=St. Louis blues
TTITLE11=It's me
TTITLE12=El agitador
TTITLE13=Hartas
EXTD=
EXTT0=
EXTT1=
EXTT2=
EXTT3=
EXTT4=
EXTT5=
EXTT6=
EXTT7=
EXTT8=
EXTT9=
EXTT10=
EXTT11=
EXTT12=
EXTT13=
PLAYORDER=
